<?xml version="1.0" encoding="UTF-8" standalone="no"?>
<!-- Created with Inkscape (http://www.inkscape.org/) -->

<svg
   xmlns:dc="http://purl.org/dc/elements/1.1/"
   xmlns:cc="http://creativecommons.org/ns#"
   xmlns:rdf="http://www.w3.org/1999/02/22-rdf-syntax-ns#"
   xmlns:svg="http://www.w3.org/2000/svg"
   xmlns="http://www.w3.org/2000/svg"
   xmlns:sodipodi="http://sodipodi.sourceforge.net/DTD/sodipodi-0.dtd"
   xmlns:inkscape="http://www.inkscape.org/namespaces/inkscape"
   width="210mm"
   height="297mm"
   viewBox="0 0 744.09448819 1052.3622047"
   id="svg2"
   version="1.1"
   inkscape:version="0.91 r13725"
   sodipodi:docname="hero.svg">
  <defs
     id="defs4" />
  <sodipodi:namedview
     id="base"
     pagecolor="#ffffff"
     bordercolor="#666666"
     borderopacity="1.0"
     inkscape:pageopacity="0.0"
     inkscape:pageshadow="2"
     inkscape:zoom="0.35"
     inkscape:cx="375"
     inkscape:cy="520"
     inkscape:document-units="px"
     inkscape:current-layer="layer1"
     showgrid="false"
     inkscape:window-width="1855"
     inkscape:window-height="1056"
     inkscape:window-x="65"
     inkscape:window-y="24"
     inkscape:window-maximized="1" />
  <metadata
     id="metadata7">
    <rdf:RDF>
      <cc:Work
         rdf:about="">
        <dc:format>image/svg+xml</dc:format>
        <dc:type
           rdf:resource="http://purl.org/dc/dcmitype/StillImage" />
        <dc:title></dc:title>
      </cc:Work>
    </rdf:RDF>
  </metadata>
  <g
     inkscape:label="Layer 1"
     inkscape:groupmode="layer"
     id="layer1">
    <path
       style="fill:#000000"
       d="m 327.25589,767.31048 c -17.87772,-5.02059 -48.22199,-16.75161 -67.4317,-26.06898 -40.12934,-19.46415 -118.74026,-90.81441 -108.1627,-98.17259 3.73542,-2.59846 63.43212,-48.34476 132.65934,-101.65839 L 410.18852,444.47664 398.22868,378.70733 C 365.49631,198.7061 352.59547,119.53845 355.51913,116.61479 c 5.77595,-5.77595 91.86336,-3.38317 125.19944,3.4799 128.99159,26.55617 237.42633,143.19581 257.76079,277.26479 23.07776,152.15599 -68.38667,304.97502 -215.11673,359.41766 -51.93862,19.2713 -146.84063,24.3687 -196.10674,10.53334 z M 59.635787,609.13847 C 11.978703,546.65681 -12.496616,450.88003 -0.50970741,373.77721 6.6696233,327.59794 32.32851,262.77503 53.391466,237.60487 l 11.661717,-13.93573 142.749027,95.32695 c 78.51196,52.42982 142.74902,96.53067 142.74902,98.0019 0,2.58125 -253.440616,199.12156 -268.213565,207.99656 -4.348356,2.61234 -13.480094,-3.76569 -22.701878,-15.85608 z M 192.61149,259.92254 43.881362,160.80195 54.467271,142.54526 C 72.534614,111.38591 127.05071,61.165899 164.44307,41.235978 203.39067,20.477122 274.42822,-1.6116801 281.0252,4.9852979 c 5.41735,5.4173411 63.72413,329.3015921 61.79934,343.2847621 -1.14944,8.3504 -34.92957,-11.51732 -150.21305,-88.34752 z"
       id="path3420"
       inkscape:connector-curvature="0" />
  </g>
</svg>
